<svg width="24" height="24" viewBox="0 0 24 24" fill="none" xmlns="http://www.w3.org/2000/svg">
<g id="Frame" clip-path="url(#clip0_59_228)">
<path id="Vector" d="M18.4579 5.89891C18.4579 6.62055 17.8723 7.2063 17.1505 7.2063H4.07692C3.35523 7.2063 2.76953 6.62055 2.76953 5.89891C2.76953 5.17727 3.35523 4.59157 4.07692 4.59157H17.1506C17.8723 4.59157 18.4579 5.17727 18.4579 5.89891ZM14.5359 12.4358C14.5359 13.1574 13.9502 13.7431 13.2284 13.7431H4.07692C3.35523 13.7431 2.76953 13.1574 2.76953 12.4358C2.76953 11.714 3.35523 11.1284 4.07692 11.1284H13.2284C13.9502 11.1284 14.5359 11.714 14.5359 12.4358ZM18.4579 18.9726C18.4579 19.6942 17.8723 20.28 17.1505 20.28H4.07692C3.35523 20.28 2.76953 19.6942 2.76953 18.9726C2.76953 18.2508 3.35523 17.6653 4.07692 17.6653H17.1506C17.8723 17.6653 18.4579 18.2508 18.4579 18.9726ZM17.1505 16.3578L22.38 12.4358L17.1505 8.51365V16.3578Z" fill="white"/>
</g>
<defs>
<clipPath id="clip0_59_228">
<rect width="24" height="24" fill="white"/>
</clipPath>
</defs>
</svg>
