<svg width="24" height="24" viewBox="0 0 24 24" fill="none" xmlns="http://www.w3.org/2000/svg">
<g id="Frame" clip-path="url(#clip0_59_222)">
<path id="Vector" d="M15.5 5.5C15.8978 5.5 16.2794 5.65804 16.5607 5.93934C16.842 6.22064 17 6.60218 17 7V21C17 21.3978 16.842 21.7794 16.5607 22.0607C16.2794 22.342 15.8978 22.5 15.5 22.5H4.5C4.30302 22.5 4.10796 22.4612 3.92597 22.3858C3.74399 22.3104 3.57863 22.1999 3.43934 22.0607C3.30005 21.9214 3.18956 21.756 3.11418 21.574C3.0388 21.392 3 21.197 3 21V7C3 6.60218 3.15804 6.22064 3.43934 5.93934C3.72064 5.65804 4.10218 5.5 4.5 5.5H15.5ZM15 7.5H5V20.5H15V7.5ZM19.496 1.5C19.8691 1.49977 20.2288 1.63856 20.505 1.88928C20.7813 2.14001 20.9542 2.48467 20.99 2.856L20.996 3V16.493C20.9957 16.7479 20.8981 16.993 20.7232 17.1784C20.5482 17.3637 20.309 17.4752 20.0546 17.4902C19.8002 17.5051 19.5496 17.4223 19.3542 17.2587C19.1587 17.0951 19.0331 16.8631 19.003 16.61L18.996 16.493V3.5H9C8.75507 3.49997 8.51866 3.41004 8.33563 3.24729C8.15259 3.08453 8.03566 2.86025 8.007 2.617L8 2.5C8.00003 2.25507 8.08996 2.01866 8.25272 1.83563C8.41547 1.65259 8.63975 1.53566 8.883 1.507L9 1.5H19.496Z" fill="#FFAE2E"/>
</g>
<defs>
<clipPath id="clip0_59_222">
<rect width="24" height="24" fill="white"/>
</clipPath>
</defs>
</svg>
